<svg id="Layer_1" data-name="Layer 1" xmlns="http://www.w3.org/2000/svg" viewBox="0 0 207.57 109.24"><path d="M80.24,25.85V71.72a11.67,11.67,0,1,1-23.33,0V25.85h.62a11.55,11.55,0,0,1,10.85,7.37l.19.48.2-.48A11.63,11.63,0,0,1,79.6,25.85Z"/><path d="M106.86,36.81V83.39H95.05A11.55,11.55,0,0,1,83.53,71.85v-46H95.88A11,11,0,0,1,106.86,36.81Z"/><path d="M53.62,25.85V71.77A11.63,11.63,0,0,1,42,83.39H30.31l0-57.54Z"/><path d="M123.15,68.82V63.94l-2.4,4h-.85L117.51,64v4.78h-1.77V60.68h1.56l3,5.06,3-5.06h1.55l0,8.14Z"/><path d="M134.32,67.31v1.51H128V60.68h6.16v1.51h-4.28V64h3.78v1.47h-3.78v1.88Z"/><path d="M137,60.68h1.88v6.61H143v1.53h-6Z"/><path d="M145.18,60.68h1.88v8.14h-1.88Z"/><path d="M151,68.7a4.25,4.25,0,0,1-1.45-.68l.64-1.42a4.36,4.36,0,0,0,1.24.62,4.83,4.83,0,0,0,1.45.23,2.26,2.26,0,0,0,1.18-.24.72.72,0,0,0,.39-.63.59.59,0,0,0-.23-.48,1.52,1.52,0,0,0-.58-.31c-.24-.08-.56-.17-1-.26a13.77,13.77,0,0,1-1.53-.44,2.55,2.55,0,0,1-1-.71,1.89,1.89,0,0,1-.43-1.3,2.23,2.23,0,0,1,.39-1.29,2.55,2.55,0,0,1,1.15-.91,4.66,4.66,0,0,1,1.89-.34,6.05,6.05,0,0,1,1.53.19,4.49,4.49,0,0,1,1.3.53l-.58,1.43a4.52,4.52,0,0,0-2.26-.64,2.11,2.11,0,0,0-1.17.26.78.78,0,0,0-.38.67.68.68,0,0,0,.44.63,8.18,8.18,0,0,0,1.33.4,11.9,11.9,0,0,1,1.53.44,2.63,2.63,0,0,1,1,.7,1.89,1.89,0,0,1,.42,1.29,2.21,2.21,0,0,1-.39,1.27,2.62,2.62,0,0,1-1.17.92,4.84,4.84,0,0,1-1.89.33A6.45,6.45,0,0,1,151,68.7Z"/><path d="M159.55,68.7A4.35,4.35,0,0,1,158.1,68l.64-1.42a4.43,4.43,0,0,0,1.25.62,4.81,4.81,0,0,0,1.44.23,2.3,2.3,0,0,0,1.19-.24.71.71,0,0,0,.38-.63.58.58,0,0,0-.22-.48,1.65,1.65,0,0,0-.59-.31,8.67,8.67,0,0,0-1-.26,13.52,13.52,0,0,1-1.52-.44,2.51,2.51,0,0,1-1-.71,1.93,1.93,0,0,1-.42-1.3,2.3,2.3,0,0,1,.38-1.29,2.58,2.58,0,0,1,1.16-.91,4.66,4.66,0,0,1,1.89-.34,5.92,5.92,0,0,1,1.52.19,4.55,4.55,0,0,1,1.31.53L164,62.69a4.54,4.54,0,0,0-2.26-.64,2.11,2.11,0,0,0-1.17.26.78.78,0,0,0-.38.67.68.68,0,0,0,.44.63,7.87,7.87,0,0,0,1.33.4,11.24,11.24,0,0,1,1.52.44,2.49,2.49,0,0,1,1,.7,1.89,1.89,0,0,1,.43,1.29,2.21,2.21,0,0,1-.39,1.27,2.62,2.62,0,0,1-1.17.92,4.9,4.9,0,0,1-1.9.33A6.5,6.5,0,0,1,159.55,68.7Z"/><path d="M172.7,67.08h-3.79l-.72,1.74h-1.93l3.63-8.14h1.86l3.64,8.14h-2Zm-.6-1.43-1.29-3.12-1.29,3.12Z"/><path d="M116.55,82.66A4.25,4.25,0,0,1,115.1,82l.64-1.42a4.12,4.12,0,0,0,1.24.62,4.58,4.58,0,0,0,1.45.23,2.38,2.38,0,0,0,1.18-.23.72.72,0,0,0,.39-.64.62.62,0,0,0-.23-.48,1.68,1.68,0,0,0-.58-.31c-.24-.08-.56-.16-1-.26a11.9,11.9,0,0,1-1.53-.44,2.45,2.45,0,0,1-1-.71,1.87,1.87,0,0,1-.43-1.3,2.28,2.28,0,0,1,.39-1.29,2.55,2.55,0,0,1,1.15-.91,4.68,4.68,0,0,1,1.9-.34,6,6,0,0,1,1.52.19,4.49,4.49,0,0,1,1.3.53l-.58,1.43a4.59,4.59,0,0,0-2.26-.64,2.11,2.11,0,0,0-1.17.26.78.78,0,0,0-.37.68.66.66,0,0,0,.43.62,7.28,7.28,0,0,0,1.33.4,13.77,13.77,0,0,1,1.53.44,2.63,2.63,0,0,1,1,.7,1.89,1.89,0,0,1,.42,1.29,2.25,2.25,0,0,1-.39,1.28,2.68,2.68,0,0,1-1.17.91,4.84,4.84,0,0,1-1.89.34A6.46,6.46,0,0,1,116.55,82.66Z"/><path d="M130.92,81.25v1.54H123.8V81.57l4.47-5.39H123.9V74.64h6.85v1.22l-4.46,5.39Z"/><path d="M135,76.18h-2.6V74.64h7.1v1.54h-2.61v6.61H135Z"/><path d="M143.19,82.38a4,4,0,0,1-1.59-1.51,4.29,4.29,0,0,1,0-4.31,4,4,0,0,1,1.59-1.51,4.7,4.7,0,0,1,2.29-.55,4.63,4.63,0,0,1,2.28.55,4.08,4.08,0,0,1,1.6,1.51,4.29,4.29,0,0,1,0,4.31,4.08,4.08,0,0,1-1.6,1.51,4.75,4.75,0,0,1-2.28.55A4.81,4.81,0,0,1,143.19,82.38ZM146.78,81a2.35,2.35,0,0,0,.92-.93,2.7,2.7,0,0,0,.33-1.35,2.75,2.75,0,0,0-.33-1.35,2.39,2.39,0,0,0-.92-.92,2.73,2.73,0,0,0-2.6,0,2.46,2.46,0,0,0-.92.92,2.75,2.75,0,0,0-.33,1.35,2.7,2.7,0,0,0,.33,1.35,2.42,2.42,0,0,0,.92.93,2.73,2.73,0,0,0,2.6,0Z"/><path d="M152.33,82.62a3,3,0,0,1-1.14-.88l1.05-1.26a1.88,1.88,0,0,0,1.51.9c.77,0,1.16-.45,1.16-1.35V76.15H152V74.64h4.74v5.28a3.07,3.07,0,0,1-.75,2.26,2.93,2.93,0,0,1-2.18.75A3.75,3.75,0,0,1,152.33,82.62Z"/><path d="M162.77,79.59l-1.09,1.14v2.06H159.8V74.64h1.88v3.81l3.6-3.81h2.1L164,78.27l3.57,4.52h-2.2Z"/><path d="M174.58,81H170.8l-.72,1.75h-1.93l3.63-8.15h1.86l3.64,8.15h-2ZM174,79.61l-1.29-3.12-1.29,3.12Z"/></svg>